<svg width="34" height="25" viewBox="0 0 34 25" fill="none" xmlns="http://www.w3.org/2000/svg">
<path d="M12.8334 12.5C14.491 12.5 16.0807 11.8415 17.2528 10.6694C18.4249 9.49731 19.0834 7.9076 19.0834 6.25C19.0834 4.5924 18.4249 3.00269 17.2528 1.83058C16.0807 0.65848 14.491 0 12.8334 0C11.1758 0 9.58606 0.65848 8.41396 1.83058C7.24185 3.00269 6.58337 4.5924 6.58337 6.25C6.58337 7.9076 7.24185 9.49731 8.41396 10.6694C9.58606 11.8415 11.1758 12.5 12.8334 12.5ZM2.41671 25C2.41671 25 0.333374 25 0.333374 22.9167C0.333374 20.8333 2.41671 14.5833 12.8334 14.5833C23.25 14.5833 25.3334 20.8333 25.3334 22.9167C25.3334 25 23.25 25 23.25 25H2.41671ZM23.25 3.125C23.25 2.84873 23.3598 2.58378 23.5551 2.38843C23.7505 2.19308 24.0154 2.08333 24.2917 2.08333H32.625C32.9013 2.08333 33.1663 2.19308 33.3616 2.38843C33.557 2.58378 33.6667 2.84873 33.6667 3.125C33.6667 3.40127 33.557 3.66622 33.3616 3.86157C33.1663 4.05692 32.9013 4.16667 32.625 4.16667H24.2917C24.0154 4.16667 23.7505 4.05692 23.5551 3.86157C23.3598 3.66622 23.25 3.40127 23.25 3.125ZM24.2917 8.33333C24.0154 8.33333 23.7505 8.44308 23.5551 8.63843C23.3598 8.83378 23.25 9.09873 23.25 9.375C23.25 9.65127 23.3598 9.91622 23.5551 10.1116C23.7505 10.3069 24.0154 10.4167 24.2917 10.4167H32.625C32.9013 10.4167 33.1663 10.3069 33.3616 10.1116C33.557 9.91622 33.6667 9.65127 33.6667 9.375C33.6667 9.09873 33.557 8.83378 33.3616 8.63843C33.1663 8.44308 32.9013 8.33333 32.625 8.33333H24.2917ZM28.4584 14.5833C28.1821 14.5833 27.9172 14.6931 27.7218 14.8884C27.5265 15.0838 27.4167 15.3487 27.4167 15.625C27.4167 15.9013 27.5265 16.1662 27.7218 16.3616C27.9172 16.5569 28.1821 16.6667 28.4584 16.6667H32.625C32.9013 16.6667 33.1663 16.5569 33.3616 16.3616C33.557 16.1662 33.6667 15.9013 33.6667 15.625C33.6667 15.3487 33.557 15.0838 33.3616 14.8884C33.1663 14.6931 32.9013 14.5833 32.625 14.5833H28.4584ZM28.4584 20.8333C28.1821 20.8333 27.9172 20.9431 27.7218 21.1384C27.5265 21.3338 27.4167 21.5987 27.4167 21.875C27.4167 22.1513 27.5265 22.4162 27.7218 22.6116C27.9172 22.8069 28.1821 22.9167 28.4584 22.9167H32.625C32.9013 22.9167 33.1663 22.8069 33.3616 22.6116C33.557 22.4162 33.6667 22.1513 33.6667 21.875C33.6667 21.5987 33.557 21.3338 33.3616 21.1384C33.1663 20.9431 32.9013 20.8333 32.625 20.8333H28.4584Z" fill="#BC8A1A"/>
</svg>
