<svg width="25" height="25" viewBox="0 0 25 25" fill="none" xmlns="http://www.w3.org/2000/svg">
<path d="M25 1.25893L23.7411 0L20.5357 3.20536L17.3303 0L16.0714 1.25893L19.2768 4.46429L16.0714 7.66964L17.3303 8.92857L20.5357 5.72321L23.7411 8.92857L25 7.66964L21.7946 4.46429L25 1.25893Z" fill="#BC8A1A"/>
<path d="M19.6429 10.7143V23.2143H14.2857V3.57141H12.5V23.2143C12.5005 23.6877 12.6888 24.1417 13.0235 24.4764C13.3583 24.8112 13.8123 24.9995 14.2857 25H19.6429C20.1163 24.9995 20.5702 24.8112 20.905 24.4764C21.2398 24.1417 21.4281 23.6877 21.4286 23.2143V10.7143H19.6429ZM7.14286 25H1.78571C1.31226 24.9995 0.85833 24.8112 0.523546 24.4764C0.188762 24.1417 0.000472747 23.6877 0 23.2143V5.35713C0.000472747 4.88367 0.188762 4.42974 0.523546 4.09496C0.85833 3.76017 1.31226 3.57188 1.78571 3.57141H7.14286C7.61631 3.57188 8.07024 3.76017 8.40503 4.09496C8.73981 4.42974 8.9281 4.88367 8.92857 5.35713V23.2143C8.9281 23.6877 8.73981 24.1417 8.40503 24.4764C8.07024 24.8112 7.61631 24.9995 7.14286 25ZM1.78571 5.35713V23.2143H7.14286V5.35713H1.78571Z" fill="#BC8A1A"/>
</svg>
