<svg width="27" height="25" viewBox="0 0 27 25" fill="none" xmlns="http://www.w3.org/2000/svg">
<path d="M7.875 0H4.125C3.13044 0 2.17661 0.395088 1.47335 1.09835C0.770088 1.80161 0.375 2.75544 0.375 3.75V7.5H3.76C3.50833 6.92422 3.43609 6.28594 3.5527 5.66847C3.66932 5.05101 3.96938 4.48304 4.41371 4.03871C4.85804 3.59438 5.42601 3.29432 6.04347 3.1777C6.66094 3.06109 7.29922 3.13333 7.875 3.385V0ZM0.375 9.375V15C0.375 15.9946 0.770088 16.9484 1.47335 17.6517C2.17661 18.3549 3.13044 18.75 4.125 18.75H7.875V10.7L5.725 12.85C5.54728 13.0156 5.31222 13.1058 5.06935 13.1015C4.82647 13.0972 4.59474 12.9988 4.42297 12.827C4.25121 12.6553 4.15282 12.4235 4.14853 12.1807C4.14425 11.9378 4.2344 11.7027 4.4 11.525L6.55 9.375H0.375ZM9.75 18.75H11.625V18.125C11.625 17.2962 11.9542 16.5013 12.5403 15.9153C13.1263 15.3292 13.9212 15 14.75 15H24.75C24.9638 15 25.1725 15.0213 25.375 15.0625V9.375H11.075L13.225 11.525C13.3171 11.6108 13.391 11.7143 13.4422 11.8293C13.4935 11.9443 13.521 12.0685 13.5232 12.1943C13.5255 12.3202 13.5023 12.4453 13.4552 12.562C13.408 12.6787 13.3378 12.7848 13.2488 12.8738C13.1598 12.9628 13.0537 13.033 12.937 13.0802C12.8203 13.1273 12.6952 13.1505 12.5693 13.1482C12.4435 13.146 12.3193 13.1185 12.2043 13.0672C12.0893 13.016 11.9858 12.9421 11.9 12.85L9.75 10.7V18.75ZM25.375 7.5H13.865C14.1167 6.92422 14.1889 6.28594 14.0723 5.66847C13.9557 5.05101 13.6556 4.48304 13.2113 4.03871C12.767 3.59438 12.199 3.29432 11.5815 3.1777C10.9641 3.06109 10.3258 3.13333 9.75 3.385V0H21.625C22.6196 0 23.5734 0.395088 24.2767 1.09835C24.9799 1.80161 25.375 2.75544 25.375 3.75V7.5ZM11 7.5H9.75V6.25C9.75 6.00277 9.82331 5.7611 9.96066 5.55554C10.098 5.34998 10.2932 5.18976 10.5216 5.09515C10.7501 5.00054 11.0014 4.97579 11.2439 5.02402C11.4863 5.07225 11.7091 5.1913 11.8839 5.36612C12.0587 5.54093 12.1778 5.76366 12.226 6.00614C12.2742 6.24861 12.2495 6.49995 12.1548 6.72835C12.0602 6.95676 11.9 7.15199 11.6945 7.28934C11.4889 7.42669 11.2472 7.5 11 7.5ZM7.875 7.5H6.625C6.3782 7.49999 6.13693 7.42693 5.93159 7.29001C5.72625 7.1531 5.56603 6.95846 5.47114 6.73064C5.37624 6.50281 5.35091 6.25199 5.39834 6.00979C5.44576 5.76759 5.56383 5.54485 5.73764 5.36964C5.91146 5.19444 6.13325 5.07461 6.37506 5.02525C6.61688 4.9759 6.86789 4.99923 7.09647 5.0923C7.32504 5.18538 7.52095 5.34404 7.65949 5.54828C7.79804 5.75252 7.87303 5.99321 7.875 6.24V7.5ZM12.875 18.125C12.875 17.6277 13.0725 17.1508 13.4242 16.7992C13.7758 16.4475 14.2527 16.25 14.75 16.25H24.75C25.2473 16.25 25.7242 16.4475 26.0758 16.7992C26.4275 17.1508 26.625 17.6277 26.625 18.125V23.125C26.625 23.6223 26.4275 24.0992 26.0758 24.4508C25.7242 24.8025 25.2473 25 24.75 25H14.75C14.2527 25 13.7758 24.8025 13.4242 24.4508C13.0725 24.0992 12.875 23.6223 12.875 23.125V18.125ZM25.375 18.75C25.0435 18.75 24.7255 18.6183 24.4911 18.3839C24.2567 18.1495 24.125 17.8315 24.125 17.5H22.875C22.875 18.163 23.1384 18.7989 23.6072 19.2678C24.0761 19.7366 24.712 20 25.375 20V18.75ZM25.375 21.25C24.712 21.25 24.0761 21.5134 23.6072 21.9822C23.1384 22.4511 22.875 23.087 22.875 23.75H24.125C24.125 23.4185 24.2567 23.1005 24.4911 22.8661C24.7255 22.6317 25.0435 22.5 25.375 22.5V21.25ZM15.375 17.5C15.375 17.8315 15.2433 18.1495 15.0089 18.3839C14.7745 18.6183 14.4565 18.75 14.125 18.75V20C14.788 20 15.4239 19.7366 15.8928 19.2678C16.3616 18.7989 16.625 18.163 16.625 17.5H15.375ZM16.625 23.75C16.625 23.087 16.3616 22.4511 15.8928 21.9822C15.4239 21.5134 14.788 21.25 14.125 21.25V22.5C14.4565 22.5 14.7745 22.6317 15.0089 22.8661C15.2433 23.1005 15.375 23.4185 15.375 23.75H16.625ZM21.9375 20.625C21.9375 20.0448 21.707 19.4884 21.2968 19.0782C20.8866 18.668 20.3302 18.4375 19.75 18.4375C19.1698 18.4375 18.6134 18.668 18.2032 19.0782C17.793 19.4884 17.5625 20.0448 17.5625 20.625C17.5625 21.2052 17.793 21.7616 18.2032 22.1718C18.6134 22.582 19.1698 22.8125 19.75 22.8125C20.3302 22.8125 20.8866 22.582 21.2968 22.1718C21.707 21.7616 21.9375 21.2052 21.9375 20.625V20.625Z" fill="#BC8A1A"/>
</svg>
