<svg width="25" height="25" viewBox="0 0 25 25" fill="none" xmlns="http://www.w3.org/2000/svg">
<path d="M15 20.1388C15 19.9546 14.9268 19.778 14.7966 19.6477C14.6664 19.5175 14.4897 19.4443 14.3056 19.4443H10.1389C9.95472 19.4443 9.77809 19.5175 9.64786 19.6477C9.51762 19.778 9.44446 19.9546 9.44446 20.1388C9.44446 20.323 9.51762 20.4996 9.64786 20.6298C9.77809 20.7601 9.95472 20.8332 10.1389 20.8332H14.3056C14.4897 20.8332 14.6664 20.7601 14.7966 20.6298C14.9268 20.4996 15 20.323 15 20.1388Z" fill="#BC8A1A"/>
<path d="M15.6529 16.6667H11.4862C11.302 16.6667 11.1254 16.7399 10.9951 16.8701C10.8649 17.0004 10.7917 17.177 10.7917 17.3612C10.7917 17.5454 10.8649 17.722 10.9951 17.8522C11.1254 17.9825 11.302 18.0556 11.4862 18.0556H15.6529C15.837 18.0556 16.0137 17.9825 16.1439 17.8522C16.2741 17.722 16.3473 17.5454 16.3473 17.3612C16.3473 17.177 16.2741 17.0004 16.1439 16.8701C16.0137 16.7399 15.837 16.6667 15.6529 16.6667Z" fill="#BC8A1A"/>
<path d="M15.2777 22.2222H11.1111C10.9269 22.2222 10.7503 22.2953 10.62 22.4256C10.4898 22.5558 10.4166 22.7324 10.4166 22.9166C10.4166 23.1008 10.4898 23.2774 10.62 23.4077C10.7503 23.5379 10.9269 23.6111 11.1111 23.6111H15.2777C15.4619 23.6111 15.6386 23.5379 15.7688 23.4077C15.899 23.2774 15.9722 23.1008 15.9722 22.9166C15.9722 22.7324 15.899 22.5558 15.7688 22.4256C15.6386 22.2953 15.4619 22.2222 15.2777 22.2222Z" fill="#BC8A1A"/>
<path d="M22.7083 22.2222H17.8472C17.663 22.2222 17.4863 22.2953 17.3561 22.4256C17.2259 22.5558 17.1527 22.7324 17.1527 22.9166C17.1527 23.1008 17.2259 23.2774 17.3561 23.4077C17.4863 23.5379 17.663 23.6111 17.8472 23.6111H22.7083C22.8924 23.6111 23.0691 23.5379 23.1993 23.4077C23.3295 23.2774 23.4027 23.1008 23.4027 22.9166C23.4027 22.7324 23.3295 22.5558 23.1993 22.4256C23.0691 22.2953 22.8924 22.2222 22.7083 22.2222Z" fill="#BC8A1A"/>
<path d="M23.4027 19.4443H18.5416C18.3574 19.4443 18.1808 19.5175 18.0506 19.6477C17.9203 19.778 17.8472 19.9546 17.8472 20.1388C17.8472 20.323 17.9203 20.4996 18.0506 20.6298C18.1808 20.7601 18.3574 20.8332 18.5416 20.8332H23.4027C23.5869 20.8332 23.7635 20.7601 23.8938 20.6298C24.024 20.4996 24.0972 20.323 24.0972 20.1388C24.0972 19.9546 24.024 19.778 23.8938 19.6477C23.7635 19.5175 23.5869 19.4443 23.4027 19.4443Z" fill="#BC8A1A"/>
<path d="M23.4305 18.0556C23.227 15.6104 22.5625 13.2259 21.4722 11.0278C20.4277 9.04151 18.9228 7.33419 17.0833 6.04864L18.75 2.37503C18.8037 2.26524 18.8275 2.14321 18.819 2.02128C18.8104 1.89934 18.7699 1.78182 18.7014 1.68058C18.6382 1.59178 18.5549 1.5191 18.4584 1.46843C18.3619 1.41776 18.2548 1.39052 18.1458 1.38892H6.80554C6.6888 1.38863 6.57387 1.41778 6.47138 1.47366C6.36888 1.52955 6.28213 1.61038 6.21914 1.70867C6.15615 1.80696 6.11896 1.91954 6.111 2.03601C6.10304 2.15248 6.12457 2.26908 6.1736 2.37503L7.87499 6.06253C6.04893 7.34929 4.55428 9.051 3.51388 11.0278C2.02082 13.8056 1.55554 17.2014 1.43054 19.5556C1.41008 19.9002 1.46121 20.2454 1.58073 20.5693C1.70025 20.8932 1.88556 21.1888 2.12499 21.4375C2.37663 21.6819 2.67459 21.8736 3.00135 22.0012C3.32811 22.1288 3.67709 22.1898 4.02777 22.1806H8.33332V20.8334H3.97221C3.81505 20.8329 3.65961 20.8006 3.51521 20.7386C3.37082 20.6765 3.24045 20.5859 3.13193 20.4723C3.02326 20.3595 2.93933 20.2252 2.88551 20.0782C2.8317 19.9311 2.8092 19.7744 2.81943 19.6181C2.91666 17.8056 3.2986 14.3542 4.7361 11.6667C5.74945 9.74107 7.24793 8.11334 9.08332 6.94447H9.77777C9.30717 7.59549 8.87362 8.27248 8.47916 8.97225C8.0774 9.71686 7.73603 10.4925 7.45832 11.2917L8.40971 11.9306C8.69079 11.1014 9.03677 10.2957 9.44443 9.52086C9.94503 8.61994 10.5138 7.75863 11.1458 6.94447H11.8403C12.3061 8.05794 12.6349 9.22389 12.8194 10.4167C12.9703 11.3022 13.0446 12.199 13.0417 13.0973L14.1389 12.3264C14.1083 11.628 14.0341 10.9322 13.9167 10.2431C13.7303 9.11682 13.4326 8.01186 13.0278 6.94447H13.5694L14.2014 5.55558H9.1736L7.88888 2.77781H17.0625L15.3264 6.57642C15.624 6.73582 15.9095 6.91686 16.1805 7.11808C17.882 8.29197 19.2775 9.85648 20.25 11.6806C21.2241 13.6807 21.8287 15.8404 22.0347 18.0556H23.4305Z" fill="#BC8A1A"/>
</svg>
