<svg width="27" height="25" viewBox="0 0 27 25" fill="none" xmlns="http://www.w3.org/2000/svg">
<path d="M22.0045 10H20.0045C20.0037 9.20459 19.6874 8.44199 19.125 7.87956C18.5625 7.31712 17.7999 7.00079 17.0045 7V5C18.3301 5.00159 19.601 5.52888 20.5383 6.46622C21.4756 7.40356 22.0029 8.67441 22.0045 10Z" fill="#BC8A1A"/>
<path d="M25.0427 9.61539H23.1196C23.1176 7.8309 22.4078 6.12008 21.146 4.85826C19.8841 3.59644 18.1733 2.88665 16.3888 2.88462V0.961539C18.6832 0.964084 20.8829 1.87664 22.5052 3.499C24.1276 5.12136 25.0401 7.32102 25.0427 9.61539V9.61539ZM23.1196 25H22.9561C4.06191 23.9135 1.37921 7.97115 1.00421 3.10577C0.945603 2.34303 1.19237 1.58824 1.69023 1.00743C2.1881 0.426616 2.89628 0.0673506 3.65902 0.00865481C3.7353 0.00288558 3.8119 9.01529e-07 3.88883 9.01529e-07H8.95614C9.34129 -0.000371948 9.71768 0.114914 10.0366 0.330926C10.3554 0.546937 10.6021 0.853721 10.7446 1.21154L12.2061 4.80769C12.3469 5.15726 12.3818 5.54046 12.3066 5.9097C12.2313 6.27895 12.0493 6.61795 11.7831 6.88462L9.73498 8.95192C10.0536 10.7705 10.9238 12.4471 12.2276 13.7543C13.5314 15.0616 15.2057 15.9362 17.0234 16.2596L19.11 14.1923C19.3807 13.929 19.7229 13.7512 20.0939 13.6811C20.465 13.611 20.8484 13.6517 21.1965 13.7981L24.8215 15.25C25.1739 15.397 25.4746 15.6456 25.6852 15.9641C25.8959 16.2826 26.0069 16.6566 26.0042 17.0385V22.1154C26.0042 22.8804 25.7003 23.6141 25.1593 24.1551C24.6184 24.6961 23.8846 25 23.1196 25ZM3.88883 1.92308C3.76256 1.9227 3.63745 1.94719 3.52064 1.99517C3.40384 2.04314 3.29763 2.11365 3.20807 2.20266C3.11852 2.29168 3.04737 2.39747 2.9987 2.51399C2.95003 2.6305 2.92478 2.75546 2.92441 2.88173C2.92441 2.90865 2.92537 2.93526 2.92729 2.96154C3.3696 8.65385 6.20614 22.1154 23.0619 23.0769C23.3164 23.0922 23.5665 23.0057 23.7573 22.8366C23.9481 22.6675 24.0639 22.4295 24.0792 22.175L24.0811 22.1154V17.0385L20.4561 15.5865L17.6965 18.3269L17.235 18.2692C8.8696 17.2212 7.73498 8.85577 7.73498 8.76923L7.67729 8.30769L10.4081 5.54808L8.96575 1.92308H3.88883Z" fill="#BC8A1A"/>
</svg>
