<svg width="26" height="25" viewBox="0 0 26 25" fill="none" xmlns="http://www.w3.org/2000/svg">
<path d="M4.40625 0C3.37025 0 2.37668 0.41155 1.64411 1.14411C0.91155 1.87668 0.5 2.87025 0.5 3.90625V18.5938C0.5 19.6298 0.91155 20.6233 1.64411 21.3559C2.37668 22.0885 3.37025 22.5 4.40625 22.5H11.7775C11.465 22.0125 11.2031 21.4888 11 20.9375H4.40625C3.78465 20.9375 3.18851 20.6906 2.74897 20.251C2.30943 19.8115 2.0625 19.2154 2.0625 18.5938V3.90625C2.0625 3.28465 2.30943 2.68851 2.74897 2.24897C3.18851 1.80943 3.78465 1.5625 4.40625 1.5625H19.0938C19.7154 1.5625 20.3115 1.80943 20.751 2.24897C21.1906 2.68851 21.4375 3.28465 21.4375 3.90625V10.5C21.9888 10.7031 22.5125 10.965 23 11.2775V3.90625C23 2.87025 22.5885 1.87668 21.8559 1.14411C21.1233 0.41155 20.1298 0 19.0938 0H4.40625ZM18.625 10C18.8281 10 19.03 10.0075 19.2294 10.0219C19.2562 9.90724 19.2568 9.78802 19.2311 9.67313C19.2054 9.55824 19.154 9.45064 19.0809 9.35839C19.0077 9.26613 18.9147 9.1916 18.8087 9.14036C18.7027 9.08912 18.5865 9.06251 18.4688 9.0625H11.9062C11.699 9.0625 11.5003 9.14481 11.3538 9.29132C11.2073 9.43784 11.125 9.63655 11.125 9.84375C11.125 10.051 11.2073 10.2497 11.3538 10.3962C11.5003 10.5427 11.699 10.625 11.9062 10.625H15.4944C16.4861 10.2111 17.5503 9.99859 18.625 10V10ZM4.25 4.53125C4.25 4.1 4.6 3.75 5.03125 3.75H18.4688C18.676 3.75 18.8747 3.83231 19.0212 3.97882C19.1677 4.12534 19.25 4.32405 19.25 4.53125C19.25 4.73845 19.1677 4.93716 19.0212 5.08368C18.8747 5.23019 18.676 5.3125 18.4688 5.3125H5.03125C4.6 5.3125 4.25 4.9625 4.25 4.53125ZM9.875 9.6875C9.875 10.0568 9.80225 10.4226 9.66091 10.7638C9.51957 11.105 9.3124 11.4151 9.05124 11.6762C8.79007 11.9374 8.48003 12.1446 8.1388 12.2859C7.79757 12.4273 7.43184 12.5 7.0625 12.5C6.69316 12.5 6.32743 12.4273 5.9862 12.2859C5.64497 12.1446 5.33493 11.9374 5.07376 11.6762C4.8126 11.4151 4.60543 11.105 4.46409 10.7638C4.32275 10.4226 4.25 10.0568 4.25 9.6875C4.25 8.94158 4.54632 8.22621 5.07376 7.69876C5.60121 7.17132 6.31658 6.875 7.0625 6.875C7.80842 6.875 8.52379 7.17132 9.05124 7.69876C9.57868 8.22621 9.875 8.94158 9.875 9.6875V9.6875ZM8.3125 9.6875C8.3125 9.35598 8.1808 9.03804 7.94638 8.80362C7.71196 8.5692 7.39402 8.4375 7.0625 8.4375C6.73098 8.4375 6.41304 8.5692 6.17862 8.80362C5.9442 9.03804 5.8125 9.35598 5.8125 9.6875C5.8125 10.019 5.9442 10.337 6.17862 10.5714C6.41304 10.8058 6.73098 10.9375 7.0625 10.9375C7.39402 10.9375 7.71196 10.8058 7.94638 10.5714C8.1808 10.337 8.3125 10.019 8.3125 9.6875ZM7.0625 19.375C7.80842 19.375 8.52379 19.0787 9.05124 18.5512C9.57868 18.0238 9.875 17.3084 9.875 16.5625C9.875 15.8166 9.57868 15.1012 9.05124 14.5738C8.52379 14.0463 7.80842 13.75 7.0625 13.75C6.31658 13.75 5.60121 14.0463 5.07376 14.5738C4.54632 15.1012 4.25 15.8166 4.25 16.5625C4.25 17.3084 4.54632 18.0238 5.07376 18.5512C5.60121 19.0787 6.31658 19.375 7.0625 19.375V19.375ZM7.0625 17.8125C6.73098 17.8125 6.41304 17.6808 6.17862 17.4464C5.9442 17.212 5.8125 16.894 5.8125 16.5625C5.8125 16.231 5.9442 15.913 6.17862 15.6786C6.41304 15.4442 6.73098 15.3125 7.0625 15.3125C7.39402 15.3125 7.71196 15.4442 7.94638 15.6786C8.1808 15.913 8.3125 16.231 8.3125 16.5625C8.3125 16.894 8.1808 17.212 7.94638 17.4464C7.71196 17.6808 7.39402 17.8125 7.0625 17.8125ZM25.5 18.125C25.5 21.9219 22.4219 25 18.625 25C14.8281 25 11.75 21.9219 11.75 18.125C11.75 14.3281 14.8281 11.25 18.625 11.25C22.4219 11.25 25.5 14.3281 25.5 18.125ZM19.25 13.75C19.25 13.5842 19.1842 13.4253 19.0669 13.3081C18.9497 13.1908 18.7908 13.125 18.625 13.125C18.4592 13.125 18.3003 13.1908 18.1831 13.3081C18.0658 13.4253 18 13.5842 18 13.75V17.5H14.25C14.0842 17.5 13.9253 17.5658 13.8081 17.6831C13.6908 17.8003 13.625 17.9592 13.625 18.125C13.625 18.2908 13.6908 18.4497 13.8081 18.5669C13.9253 18.6842 14.0842 18.75 14.25 18.75H18V22.5C18 22.6658 18.0658 22.8247 18.1831 22.9419C18.3003 23.0592 18.4592 23.125 18.625 23.125C18.7908 23.125 18.9497 23.0592 19.0669 22.9419C19.1842 22.8247 19.25 22.6658 19.25 22.5V18.75H23C23.1658 18.75 23.3247 18.6842 23.4419 18.5669C23.5592 18.4497 23.625 18.2908 23.625 18.125C23.625 17.9592 23.5592 17.8003 23.4419 17.6831C23.3247 17.5658 23.1658 17.5 23 17.5H19.25V13.75Z" fill="#BC8A1A"/>
</svg>
