<svg width="26" height="26" viewBox="0 0 26 26" fill="none" xmlns="http://www.w3.org/2000/svg">
<path d="M13.8087 1.59208C13.5409 1.57231 13.2725 1.56241 13.004 1.56239V0C13.3111 0.00014972 13.6181 0.011615 13.9243 0.0343726L13.8087 1.59208ZM16.9397 2.29515C16.4389 2.10189 15.9245 1.94575 15.4007 1.828L15.7429 0.303104C16.3413 0.437469 16.9303 0.615582 17.5021 0.837441L16.9397 2.29515V2.29515ZM19.0802 3.40445C18.8568 3.25547 18.628 3.11476 18.3943 2.9826L19.1645 1.62332C19.6987 1.92601 20.21 2.26753 20.6941 2.64513L19.7332 3.87785C19.5214 3.7126 19.3036 3.55521 19.0802 3.40601V3.40445ZM21.9456 6.20113C21.6365 5.76206 21.2955 5.34638 20.9253 4.95746L22.0565 3.87942C22.4784 4.3247 22.869 4.80123 23.2236 5.30119L21.9456 6.20113V6.20113ZM23.108 8.31348C23.0055 8.06578 22.8939 7.82188 22.7737 7.58228L24.1689 6.8792C24.4448 7.42774 24.6798 7.99591 24.8719 8.57909L23.3877 9.06811C23.3037 8.81323 23.2104 8.56152 23.108 8.31348V8.31348ZM23.9361 12.2304C23.9234 11.6935 23.8712 11.1582 23.7798 10.6289L25.3188 10.3633C25.4235 10.9664 25.4844 11.5789 25.5 12.1913L23.9376 12.2304H23.9361ZM23.7314 14.6333C23.783 14.3677 23.8251 14.1037 23.858 13.8365L25.4094 14.0287C25.3344 14.6383 25.2143 15.2414 25.0501 15.8333L23.5439 15.4161C23.6158 15.1583 23.6783 14.8974 23.7314 14.6333V14.6333ZM22.244 18.3503C22.5315 17.8972 22.7846 17.4222 23.0033 16.9316L24.4314 17.5644C24.1814 18.1269 23.8923 18.6674 23.5642 19.1862L22.244 18.3503ZM20.7379 20.233C20.9285 20.0423 21.1113 19.8455 21.2847 19.6424L22.469 20.6626C22.2684 20.8951 22.0595 21.1203 21.8425 21.3376L20.7379 20.233V20.233Z" fill="#BC8A1A"/>
<path d="M13.004 1.56239C11.2055 1.56252 9.43479 2.00618 7.84871 2.85408C6.26262 3.70198 4.91011 4.92794 3.91098 6.42338C2.91185 7.91882 2.29693 9.63757 2.1207 11.4274C1.94446 13.2173 2.21234 15.0229 2.90061 16.6845C3.58889 18.3461 4.67631 19.8123 6.06656 20.9533C7.45682 22.0943 9.10699 22.8748 10.8709 23.2257C12.6349 23.5766 14.4581 23.4871 16.1792 22.965C17.9003 22.443 19.466 21.5046 20.7378 20.233L21.8424 21.3376C20.389 22.7918 18.5993 23.8651 16.6319 24.4623C14.6646 25.0596 12.5802 25.1623 10.5636 24.7615C8.54706 24.3607 6.66048 23.4686 5.07104 22.1644C3.48161 20.8602 2.23841 19.1841 1.45159 17.2846C0.664766 15.385 0.358619 13.3208 0.560274 11.2746C0.761928 9.22851 1.46516 7.26371 2.60765 5.55433C3.75015 3.84494 5.29663 2.44375 7.11008 1.4749C8.92354 0.506051 10.948 -0.000544856 13.004 4.39748e-07V1.56239Z" fill="#BC8A1A"/>
<path d="M12.2228 4.68713C12.43 4.68713 12.6287 4.76944 12.7752 4.91594C12.9217 5.06244 13.004 5.26114 13.004 5.46833V13.6084L18.0787 16.5082C18.2533 16.6135 18.3799 16.7831 18.4312 16.9805C18.4825 17.1779 18.4546 17.3876 18.3534 17.5647C18.2522 17.7418 18.0858 17.8723 17.8896 17.9283C17.6935 17.9843 17.4832 17.9613 17.3037 17.8643L11.8354 14.7396C11.7158 14.6713 11.6164 14.5726 11.5473 14.4535C11.4781 14.3344 11.4417 14.1992 11.4417 14.0615V5.46833C11.4417 5.26114 11.524 5.06244 11.6705 4.91594C11.817 4.76944 12.0157 4.68713 12.2228 4.68713Z" fill="#BC8A1A"/>
</svg>
