<svg width="26" height="25" viewBox="0 0 26 25" fill="none" xmlns="http://www.w3.org/2000/svg">
<path d="M0 2.75C0 2.15326 0.237053 1.58097 0.65901 1.15901C1.08097 0.737053 1.65326 0.5 2.25 0.5H18.75C19.3467 0.5 19.919 0.737053 20.341 1.15901C20.7629 1.58097 21 2.15326 21 2.75V8H16.5C15.7044 8 14.9413 8.31607 14.3787 8.87868C13.8161 9.44129 13.5 10.2044 13.5 11V15.5H2.25C1.65326 15.5 1.08097 15.2629 0.65901 14.841C0.237053 14.419 0 13.8467 0 13.25V2.75ZM3 6.5C3.79565 6.5 4.55871 6.18393 5.12132 5.62132C5.68393 5.05871 6 4.29565 6 3.5V2H4.5V3.5C4.5 3.89782 4.34196 4.27936 4.06066 4.56066C3.77936 4.84196 3.39782 5 3 5H1.5V6.5H3ZM7.875 8C7.875 8.69619 8.15156 9.36387 8.64384 9.85616C9.13613 10.3484 9.80381 10.625 10.5 10.625C11.1962 10.625 11.8639 10.3484 12.3562 9.85616C12.8484 9.36387 13.125 8.69619 13.125 8C13.125 7.30381 12.8484 6.63613 12.3562 6.14384C11.8639 5.65156 11.1962 5.375 10.5 5.375C9.80381 5.375 9.13613 5.65156 8.64384 6.14384C8.15156 6.63613 7.875 7.30381 7.875 8ZM1.5 9.5V11H3C3.39782 11 3.77936 11.158 4.06066 11.4393C4.34196 11.7206 4.5 12.1022 4.5 12.5V14H6V12.5C6 11.7044 5.68393 10.9413 5.12132 10.3787C4.55871 9.81607 3.79565 9.5 3 9.5H1.5ZM19.5 6.5V5H18C17.6022 5 17.2206 4.84196 16.9393 4.56066C16.658 4.27936 16.5 3.89782 16.5 3.5V2H15V3.5C15 4.29565 15.3161 5.05871 15.8787 5.62132C16.4413 6.18393 17.2044 6.5 18 6.5H19.5ZM22.5 8V3.6275C22.9389 3.78266 23.3188 4.07012 23.5875 4.45026C23.8561 4.8304 24.0002 5.28451 24 5.75V8H22.5ZM13.5 17V18.5H5.25C4.78451 18.5002 4.3304 18.3561 3.95026 18.0875C3.57012 17.8188 3.28266 17.4389 3.1275 17H13.5ZM17.25 9.5C16.6533 9.5 16.081 9.73705 15.659 10.159C15.2371 10.581 15 11.1533 15 11.75V22.25C15 22.8467 15.2371 23.419 15.659 23.841C16.081 24.2629 16.6533 24.5 17.25 24.5H23.25C23.8467 24.5 24.419 24.2629 24.841 23.841C25.2629 23.419 25.5 22.8467 25.5 22.25V11.75C25.5 11.1533 25.2629 10.581 24.841 10.159C24.419 9.73705 23.8467 9.5 23.25 9.5H17.25ZM17.25 15.5H18.75C18.9489 15.5 19.1397 15.579 19.2803 15.7197C19.421 15.8603 19.5 16.0511 19.5 16.25C19.5 16.4489 19.421 16.6397 19.2803 16.7803C19.1397 16.921 18.9489 17 18.75 17H17.25C17.0511 17 16.8603 16.921 16.7197 16.7803C16.579 16.6397 16.5 16.4489 16.5 16.25C16.5 16.0511 16.579 15.8603 16.7197 15.7197C16.8603 15.579 17.0511 15.5 17.25 15.5ZM21.75 15.5H23.25C23.4489 15.5 23.6397 15.579 23.7803 15.7197C23.921 15.8603 24 16.0511 24 16.25C24 16.4489 23.921 16.6397 23.7803 16.7803C23.6397 16.921 23.4489 17 23.25 17H21.75C21.5511 17 21.3603 16.921 21.2197 16.7803C21.079 16.6397 21 16.4489 21 16.25C21 16.0511 21.079 15.8603 21.2197 15.7197C21.3603 15.579 21.5511 15.5 21.75 15.5ZM17.25 18.5H18.75C18.9489 18.5 19.1397 18.579 19.2803 18.7197C19.421 18.8603 19.5 19.0511 19.5 19.25C19.5 19.4489 19.421 19.6397 19.2803 19.7803C19.1397 19.921 18.9489 20 18.75 20H17.25C17.0511 20 16.8603 19.921 16.7197 19.7803C16.579 19.6397 16.5 19.4489 16.5 19.25C16.5 19.0511 16.579 18.8603 16.7197 18.7197C16.8603 18.579 17.0511 18.5 17.25 18.5ZM21.75 18.5H23.25C23.4489 18.5 23.6397 18.579 23.7803 18.7197C23.921 18.8603 24 19.0511 24 19.25C24 19.4489 23.921 19.6397 23.7803 19.7803C23.6397 19.921 23.4489 20 23.25 20H21.75C21.5511 20 21.3603 19.921 21.2197 19.7803C21.079 19.6397 21 19.4489 21 19.25C21 19.0511 21.079 18.8603 21.2197 18.7197C21.3603 18.579 21.5511 18.5 21.75 18.5ZM17.25 21.5H18.75C18.9489 21.5 19.1397 21.579 19.2803 21.7197C19.421 21.8603 19.5 22.0511 19.5 22.25C19.5 22.4489 19.421 22.6397 19.2803 22.7803C19.1397 22.921 18.9489 23 18.75 23H17.25C17.0511 23 16.8603 22.921 16.7197 22.7803C16.579 22.6397 16.5 22.4489 16.5 22.25C16.5 22.0511 16.579 21.8603 16.7197 21.7197C16.8603 21.579 17.0511 21.5 17.25 21.5ZM21.75 21.5H23.25C23.4489 21.5 23.6397 21.579 23.7803 21.7197C23.921 21.8603 24 22.0511 24 22.25C24 22.4489 23.921 22.6397 23.7803 22.7803C23.6397 22.921 23.4489 23 23.25 23H21.75C21.5511 23 21.3603 22.921 21.2197 22.7803C21.079 22.6397 21 22.4489 21 22.25C21 22.0511 21.079 21.8603 21.2197 21.7197C21.3603 21.579 21.5511 21.5 21.75 21.5ZM16.5 11.75C16.5 11.5511 16.579 11.3603 16.7197 11.2197C16.8603 11.079 17.0511 11 17.25 11H23.25C23.4489 11 23.6397 11.079 23.7803 11.2197C23.921 11.3603 24 11.5511 24 11.75V13.25C24 13.4489 23.921 13.6397 23.7803 13.7803C23.6397 13.921 23.4489 14 23.25 14H17.25C17.0511 14 16.8603 13.921 16.7197 13.7803C16.579 13.6397 16.5 13.4489 16.5 13.25V11.75Z" fill="#F8F8F8"/>
</svg>
