<svg width="20" height="25" viewBox="0 0 20 25" fill="none" xmlns="http://www.w3.org/2000/svg">
<path d="M13.35 8.35469L11.2555 10.4492L11.2406 6.25L13.35 8.35469V8.35469ZM11.2398 19.0867L13.3445 16.982L11.25 14.8875L11.2398 19.0867ZM19.375 12.6656C19.375 22.7047 15.8641 25 10.3367 25C4.80937 25 0.625 22.7047 0.625 12.6656C0.625 2.62656 4.69687 0 10.225 0C15.7531 0 19.375 2.63203 19.375 12.6656ZM11.6359 12.6656L15.5125 8.33984L9.40391 1.78203V10.4195L5.8 6.81641L4.48125 8.12969L9.00781 12.6703L4.48125 17.2117L5.79453 18.525L9.39844 14.9219L9.51094 23.2227L15.7313 16.9969L11.6359 12.6656Z" fill="#BC8A1A"/>
</svg>
